<?xml version="1.0" encoding="UTF-8" standalone="no"?>
<!-- Created with Inkscape (http://www.inkscape.org/) -->

<svg
   width="81.801888mm"
   height="91.894096mm"
   viewBox="0 0 81.801888 91.894096"
   version="1.1"
   id="svg26077"
   class="icon icon-env-opened click-target"
   inkscape:version="1.1.1 (eb90963e84, 2021-10-02)"
   sodipodi:docname="envelope_open_letter.svg"
   xmlns:inkscape="http://www.inkscape.org/namespaces/inkscape"
   xmlns:sodipodi="http://sodipodi.sourceforge.net/DTD/sodipodi-0.dtd"
   xmlns="http://www.w3.org/2000/svg"
   xmlns:svg="http://www.w3.org/2000/svg">
  <sodipodi:namedview
     id="namedview26079"
     pagecolor="#ffffff"
     bordercolor="#111111"
     borderopacity="1"
     inkscape:pageshadow="0"
     inkscape:pageopacity="0"
     inkscape:pagecheckerboard="1"
     inkscape:document-units="mm"
     showgrid="false"
     fit-margin-top="0"
     fit-margin-left="0"
     fit-margin-right="0"
     fit-margin-bottom="0"
     inkscape:zoom="0.16"
     inkscape:cx="2578.125"
     inkscape:cy="959.375"
     inkscape:window-width="1920"
     inkscape:window-height="1056"
     inkscape:window-x="1920"
     inkscape:window-y="0"
     inkscape:window-maximized="1"
     inkscape:current-layer="layer1" />
  <defs
     id="defs26074" />
  <g
     inkscape:label="Layer 1"
     inkscape:groupmode="layer"
     id="layer1"
     transform="translate(14.442609,12.874132)">
    <g
       id="g22219"
       transform="translate(-642.30589,19.3844)">
      <rect
         style="opacity:1;fill-opacity:1;stroke-width:0.0981306"
         id="rect22209"
         width="81.801605"
         height="60"
         x="627.86328"
         y="-0.36443409"
         ry="6.5977159" />
      <g
         id="g22217">
        <path
           id="path22211"
           class="env_top"
           style="opacity:1;fill-opacity:1;stroke-width:0.0981305"
           d="m 634.46098,3.6115502 c -1.85754,0 -3.53007,-0.76074 -4.72686,-1.987992 l 26.80044,-28.4819832 c 6.77513,-7.200143 17.68385,-7.200143 24.45898,0 l 26.80041,28.4819832 c -1.19676,1.227213 -2.86933,1.987992 -4.72683,1.987992 z" />
        <path
           id="path22213"
           class="env_back"
           style="opacity:1;fill-opacity:1;stroke-width:0.0981305"
           d="m 634.46098,-0.36443409 c -1.85754,0 -3.53007,0.76074017 -4.72686,1.98799229 l 26.80044,28.4819828 c 6.77513,7.200143 17.68385,7.200143 24.45898,0 L 707.79395,1.6235582 c -1.19676,-1.22721288 -2.86933,-1.98799229 -4.72683,-1.98799229 z" />
        <path
           id="path22215"
           style="opacity:1;fill:#01d2b4;fill-opacity:1;stroke-width:0.0981305"
           d="m 634.46098,59.635566 c -1.85754,0 -3.53007,-0.76074 -4.72686,-1.987992 l 26.80044,-28.481983 c 6.77513,-7.200143 17.68385,-7.200143 24.45898,0 l 26.80041,28.481983 c -1.19676,1.227213 -2.86933,1.987992 -4.72683,1.987992 z" />
      </g>
    </g>
    <rect
       style="fill-opacity:1;"
       id="letter"
       width="77.543571"
       height="51.603699"
       x="-12.313581"
       y="2.4500327"
       ry="5.6744428" />
    <g
       id="g23563"
       transform="translate(-750.87139,19.38428)">
      <path
         id="path23559"
         class="env_background"
         style="opacity:1;fill-opacity:1;stroke-width:0.370887"
         d="m 2808.2891,-1.3769531 c -0.4384,0 -0.874,0.011076 -1.3067,0.033203 0.4331,-0.022191 0.8679,-0.033203 1.3067,-0.033203 z m -1.3067,0.033203 c -0.4335,0.022172 -0.8637,0.055762 -1.291,0.099609 0.4268,-0.04384 0.858,-0.077418 1.291,-0.099609 z m -1.291,0.099609 c -0.4202,0.043117 -0.8364,0.096598 -1.25,0.1601562 0.4137,-0.063635 0.8298,-0.1169887 1.25,-0.1601562 z m 261.8965,-0.1328125 c 0.4388,0 0.8755,0.011011 1.3086,0.033203 -0.4333,-0.022194 -0.8696,-0.033203 -1.3086,-0.033203 z m 1.3086,0.033203 c 0.433,0.022192 0.8623,0.055768 1.289,0.099609 -0.4266,-0.043778 -0.8562,-0.077439 -1.289,-0.099609 z m 1.289,0.099609 c 0.4203,0.04317 0.8383,0.096517 1.252,0.1601562 -0.4136,-0.063561 -0.8318,-0.1170375 -1.252,-0.1601562 z m 1.5372,0.2109375 c 0.3267,0.0541613 0.6524,0.10911981 0.9746,0.17578122 -0.3221,-0.0665435 -0.6481,-0.12171265 -0.9746,-0.17578122 z m -267.5879,0.00391 c -0.3172,0.052803 -0.6344,0.10534428 -0.9473,0.1699219 0.3127,-0.0645827 0.6303,-0.11710609 0.9473,-0.1699219 z m 268.6562,0.1933594 c 0.3813,0.0804226 0.7603,0.16808237 1.1348,0.265625 -0.3751,-0.0975909 -0.753,-0.18518737 -1.1348,-0.265625 z m -269.7754,0.0175781 c -0.3586,0.0766768 -0.7157,0.15816749 -1.0683,0.25 0.3531,-0.0920532 0.7092,-0.17315407 1.0683,-0.25 z m -1.0683,0.25 c -0.3937,0.10250476 -0.7823,0.21502031 -1.168,0.3359375 0.385,-0.12081589 0.775,-0.23348662 1.168,-0.3359375 z m 272.0586,0.0214844 c 0.372,0.0982489 0.7405,0.20362261 1.1054,0.31835938 -0.3645,-0.11448345 -0.7338,-0.22031397 -1.1054,-0.31835938 z m 1.3144,0.38867188 c 0.3196,0.10362217 0.6375,0.21017656 0.9512,0.32617187 -0.3137,-0.11583843 -0.6317,-0.22269219 -0.9512,-0.32617187 z m -274.8848,0.0410156 c -0.2734,0.09015919 -0.5472,0.18005319 -0.8164,0.27929688 0.2693,-0.09937918 0.5428,-0.18901678 0.8164,-0.27929688 z m 276.0957,0.38671875 c 0.3062,0.11714877 0.612,0.23652423 0.9122,0.36523437 -0.3006,-0.12875055 -0.6056,-0.24806757 -0.9122,-0.36523437 z m -277.246,0.0234375 c -0.2851,0.1098371 -0.5698,0.2219231 -0.8497,0.34179687 0.2798,-0.11994679 0.5647,-0.23188698 0.8497,-0.34179687 z m 278.25,0.3828125 c 0.3469,0.15046776 0.6908,0.30710329 1.0293,0.47265627 -0.3386,-0.16543398 -0.6823,-0.32230576 -1.0293,-0.47265627 z m -279.2071,0.007813 c -0.342,0.14843404 -0.6799,0.3017535 -1.0136,0.46484377 0.3337,-0.16323444 0.6716,-0.316273 1.0136,-0.46484377 z m 280.3047,0.50000007 c 0.3483,0.1716735 0.6925,0.3498974 1.0313,0.5371093 -0.3388,-0.1870718 -0.683,-0.3655741 -1.0313,-0.5371093 z m -281.3926,0.00195 c -0.3408,0.1679538 -0.678,0.3425542 -1.0097,0.5253906 0.3313,-0.1827547 0.6693,-0.3574886 1.0097,-0.5253906 z m 282.4278,0.5371093 c 0.3435,0.1899143 0.6823,0.3883366 1.0156,0.59375 -0.3337,-0.2055827 -0.6716,-0.4037109 -1.0156,-0.59375 z m -283.541,0.048828 c -0.3217,0.1793188 -0.6406,0.3636906 -0.9532,0.5566406 0.3129,-0.1932862 0.6312,-0.3770144 0.9532,-0.5566406 z M 2795.1016,2.375 c -0.3268,0.2032611 -0.6485,0.4131143 -0.9649,0.6308594 0.3161,-0.2176723 0.6384,-0.4276424 0.9649,-0.6308594 z m -0.9649,0.6308594 c -0.3263,0.2246083 -0.6462,0.4577388 -0.9609,0.6972656 0.3146,-0.2395146 0.6348,-0.4726484 0.9609,-0.6972656 z m 286.7227,-0.5761719 c 0.2937,0.1844863 0.5858,0.37212 0.8711,0.5683594 -0.2855,-0.1962661 -0.5772,-0.3838638 -0.8711,-0.5683594 z m 0.9258,0.6074219 c 0.3194,0.2210572 0.633,0.4482126 0.9414,0.6835937 -0.3079,-0.2348436 -0.6225,-0.4630308 -0.9414,-0.6835937 z m 0.9414,0.6835937 c 0.3224,0.2461305 0.6395,0.5004577 0.9492,0.7617188 -0.3101,-0.2615082 -0.6264,-0.5153926 -0.9492,-0.7617188 z m 0.9492,0.7617188 c 0.3097,0.2612611 0.6117,0.5288389 0.9082,0.8046875 -0.2961,-0.2753646 -0.5989,-0.5438849 -0.9082,-0.8046875 z m 0.9082,0.8046875 c 0.2965,0.2758485 0.5864,0.5597165 0.8691,0.8496094 -0.283,-0.2901601 -0.5723,-0.5735445 -0.8691,-0.8496094 z m 0.8691,0.8496094 -101.2929,107.6484412 c -25.6068,27.21314 -66.8366,27.21314 -92.4434,0 L 2790.4238,6.1367188 c -4.3773,4.4887402 -7.0703,10.6278202 -7.0703,17.4218752 V 200.45898 c 0,13.81469 11.1209,24.93555 24.9356,24.93555 h 259.2988 c 13.8147,0 24.9375,-11.12086 24.9375,-24.93555 V 23.558594 c 0,-6.794542 -2.6944,-12.933051 -7.0723,-17.4218752 z M 2793.0742,3.78125 c -0.2957,0.2274774 -0.5861,0.4608963 -0.8711,0.7011719 0.285,-0.2403521 0.5754,-0.4736082 0.8711,-0.7011719 z m -0.8711,0.7011719 c -0.3015,0.25427 -0.5977,0.5150852 -0.8867,0.7832031 0.2891,-0.2682723 0.5851,-0.5287735 0.8867,-0.7832031 z m -0.9746,0.8691406 c -0.2689,0.2519608 -0.5335,0.5078885 -0.791,0.7714844 0.2572,-0.2633515 0.5224,-0.5197286 0.791,-0.7714844 z"
         transform="scale(0.26458333)" />
      <path
         id="path23561"
         class="env_bottom"
         style="opacity:1;fill-opacity:1;stroke-width:0.0981305"
         d="m 743.02667,59.635566 c -1.85754,0 -3.53007,-0.76074 -4.72686,-1.987992 l 26.80044,-28.481983 c 6.77513,-7.200143 17.68385,-7.200143 24.45898,0 l 26.80041,28.481983 c -1.19676,1.227213 -2.86933,1.987992 -4.72683,1.987992 z" />
    </g>
  </g>
</svg>
