<?xml version="1.0" encoding="UTF-8" standalone="no"?>
<svg
   width="300"
   height="33.756672"
   id="hlt_bg"
   version="1.1"
   sodipodi:docname="untangle_wave_2.svg"
   inkscape:version="1.1.1 (eb90963e84, 2021-10-02)"
   xmlns:inkscape="http://www.inkscape.org/namespaces/inkscape"
   xmlns:sodipodi="http://sodipodi.sourceforge.net/DTD/sodipodi-0.dtd"
   xmlns="http://www.w3.org/2000/svg"
   xmlns:svg="http://www.w3.org/2000/svg">
  <sodipodi:namedview
     id="namedview16764"
     pagecolor="#ffffff"
     bordercolor="#111111"
     borderopacity="1"
     inkscape:pageshadow="0"
     inkscape:pageopacity="0"
     inkscape:pagecheckerboard="1"
     showgrid="false"
     inkscape:snap-page="true"
     inkscape:snap-nodes="true"
     inkscape:zoom="2.5903678"
     inkscape:cx="80.683522"
     inkscape:cy="27.023189"
     inkscape:window-width="1920"
     inkscape:window-height="1031"
     inkscape:window-x="0"
     inkscape:window-y="25"
     inkscape:window-maximized="1"
     inkscape:current-layer="hlt_bg"
     fit-margin-top="0"
     fit-margin-left="0"
     fit-margin-right="0"
     fit-margin-bottom="0" />
  <path
     id="path17878"
     style="fill:#373770;fill-opacity:1;stroke:none;stroke-width:1px;stroke-linecap:butt;stroke-linejoin:miter;stroke-opacity:1"
     d="M 300,6.3222656 0,6.5566406 V 29.095703 C 4.8912017,24.718833 11.612963,16.85428 18.105469,16.570312 27.07615,16.177957 36.210886,20.35138 43.75,21.511719 c 7.539113,1.16034 32.822958,-1.651373 38.089844,-4.173828 5.266885,-2.522454 14.330615,-5.615663 20.992186,0.08984 6.66157,5.705506 3.76508,8.766906 17.89649,8.023438 10.7866,-0.567494 16.0243,-4.420245 20.24804,-4.964844 4.22374,-0.544599 3.28211,2.254849 6.53516,2.519531 3.25306,0.264683 10.29117,-7.214497 15,-7.009765 4.70883,0.204731 25.34357,10.127687 41.18945,10.11914 15.84588,-0.0085 19.11972,-5.244841 24.95313,-6.234375 5.8334,-0.989534 21.44436,3.707956 31.27148,4.253907 9.82712,0.545951 12.97989,9.341793 23.14844,9.611328 C 293.24277,34.015628 300,29.046876 300,29.046875 Z"
     sodipodi:nodetypes="cccsssssssscssscc" />
  <path
     id="path17858"
     style="fill:#7f7fa3;fill-opacity:1;stroke:none;stroke-width:1px;stroke-linecap:butt;stroke-linejoin:miter;stroke-opacity:1"
     d="M 300,2.3417969 0,2.390625 v 22.570313 c 5.0564314,-3.7919 12.557302,-12.253228 19.539062,-12.558594 8.970682,-0.392356 18.103465,3.781067 25.642579,4.941406 7.539113,1.16034 32.824911,-1.651373 38.091797,-4.173828 5.266885,-2.522454 14.330612,-5.6176154 20.992182,0.08789 6.66157,5.705506 3.76508,8.766906 17.89649,8.023438 10.7866,-0.567494 16.02235,-4.418292 20.24609,-4.962891 4.22374,-0.544599 3.28406,2.25485 6.53711,2.519532 3.25306,0.264683 10.29117,-7.214498 15,-7.009766 4.70883,0.204731 25.34358,10.127688 41.18946,10.119141 15.84588,-0.0085 19.11776,-5.244841 24.95117,-6.234375 5.8334,-0.989534 21.44436,3.707955 31.27148,4.253906 9.82712,0.545951 12.98184,9.341793 23.15039,9.611328 C 294.67636,29.847659 300,25.367188 300,25.367188 Z"
     sodipodi:nodetypes="cccsssssssscssscc" />
  <path
     id="path16858"
     style="fill:#373770;fill-opacity:1;stroke:none;stroke-width:1px;stroke-linecap:butt;stroke-linejoin:miter;stroke-opacity:1"
     d="m 0,0 v 25.416016 c 4.3967076,-0.113195 13.826194,-15.013893 22.796875,-15.40625 8.970681,-0.3923565 18.103464,3.78302 25.642578,4.943359 7.539113,1.16034 32.824911,-1.653326 38.091797,-4.175781 5.266885,-2.5224548 14.33062,-5.6156621 20.99219,0.08984 6.66157,5.705505 3.76507,8.766905 17.89648,8.023437 10.7866,-0.567494 16.02236,-4.420245 20.2461,-4.964844 4.22374,-0.544599 3.2821,2.254849 6.53515,2.519531 3.25306,0.264684 10.29313,-7.2125435 15.00195,-7.007812 4.70884,0.2047316 25.34358,10.125735 41.18946,10.117188 15.84588,-0.0085 19.11776,-5.242888 24.95117,-6.232422 5.8334,-0.989534 21.44436,3.706002 31.27148,4.251953 9.82712,0.545951 12.98184,9.341793 23.15039,9.611328 C 297.93418,27.455081 300,25.416016 300,25.416016 V 0 Z" />
  <!-- <link xmlns="http://www.w3.org/1999/xhtml" rel="stylesheet" href="styles/hlt.css" type="text/css"/> -->
  <style
     id="style16755">
    #logo {
      font-family: arial;
      font-size: 24pt;
      font-style: bold;
      fill: #119;
    }
  </style>
  <defs
     id="defs16758">
    <!-- <path id="headpath" d="M 50,100 C 240,50 400,82 1200,70"/> -->
    <path
       id="simplified"
       transform="scale(2)"
       d="M 50,50 C 62,37 66,29 84,29 c 18,0 4,10 100,10" />
  </defs>
</svg>
